# Blender 4.2.1 LTS
# www.blender.org
o Circle
v 0.000000 0.000000 -0.090000
v -0.077942 0.000000 -0.045000
v -0.077942 0.000000 0.045000
v 0.000000 0.000000 0.090000
v 0.077942 0.000000 0.045000
v 0.077942 0.000000 -0.045000
v 0.000000 -0.240000 -0.090000
v -0.077942 -0.240000 -0.045000
v -0.077942 -0.240000 0.045000
v 0.000000 -0.240000 0.090000
v 0.077942 -0.240000 0.045000
v 0.077942 -0.240000 -0.045000
v 0.000000 0.000000 -0.162000
v -0.140296 0.000000 -0.081000
v -0.140296 0.000000 0.081000
v 0.000000 0.000000 0.162000
v 0.140296 0.000000 0.081000
v 0.140296 0.000000 -0.081000
v 0.000000 0.240000 0.000000
vn -0.0000 -1.0000 -0.0000
vn -0.8660 -0.0000 -0.5000
vn -0.8660 -0.0000 0.5000
vn 0.8660 -0.0000 0.5000
vn 0.8660 -0.0000 -0.5000
vn -0.0000 -0.0000 1.0000
vn -0.0000 -0.0000 -1.0000
vn -0.0000 0.5595 0.8288
vn 0.7178 0.5595 0.4144
vn -0.0000 1.0000 -0.0000
vn 0.7178 0.5595 -0.4144
vn -0.0000 0.5595 -0.8288
vn -0.7178 0.5595 -0.4144
vn -0.7178 0.5595 0.4144
vt 0.000000 0.000000
s 1
f 3/1/1 15/1/1 14/1/1 2/1/1
f 8/1/1 7/1/1 12/1/1 11/1/1 10/1/1 9/1/1
f 2/1/2 8/1/2 9/1/3 3/1/3
f 5/1/4 11/1/4 12/1/5 6/1/5
f 3/1/3 9/1/3 10/1/6 4/1/6
f 1/1/7 7/1/7 8/1/2 2/1/2
f 6/1/5 12/1/5 7/1/7 1/1/7
f 4/1/6 10/1/6 11/1/4 5/1/4
f 16/1/8 17/1/9 19/1/10
f 6/1/1 18/1/1 17/1/1 5/1/1
f 4/1/1 16/1/1 15/1/1 3/1/1
f 2/1/1 14/1/1 13/1/1 1/1/1
f 1/1/1 13/1/1 18/1/1 6/1/1
f 5/1/1 17/1/1 16/1/1 4/1/1
f 17/1/9 18/1/11 19/1/10
f 18/1/11 13/1/12 19/1/10
f 13/1/12 14/1/13 19/1/10
f 16/1/8 19/1/10 15/1/14
f 14/1/13 15/1/14 19/1/10
